<?xml version="1.0" encoding="utf-8"?>
<!-- Generator: Adobe Illustrator 25.3.1, SVG Export Plug-In . SVG Version: 6.00 Build 0)  -->
<svg version="1.1" id="Layer_1" xmlns="http://www.w3.org/2000/svg" xmlns:xlink="http://www.w3.org/1999/xlink" x="0px" y="0px"
	 viewBox="0 0 24.8 27" style="enable-background:new 0 0 24.8 27;" xml:space="preserve">
<style type="text/css">
	.st0{fill:none;}
	.st1{fill:#A39161;}
</style>
<line class="st0" x1="109.7" y1="16.5" x2="109.7" y2="17.2"/>
<g>
	<path class="st1" d="M24.7,19.6L24.7,19.6c-2.3,3.9-6.4,6.5-11.2,6.5c-7.1,0-12.9-5.8-12.9-12.9c0-2.3,0.6-4.5,1.7-6.4l0,0l0,0l0,0
		l0,0C2,7.1,1.9,7.3,1.7,7.6c-3.5,6.2-1.4,14.1,4.9,17.7c6.2,3.6,14.2,1.5,17.7-4.7C24.4,20.3,24.6,20,24.7,19.6L24.7,19.6
		L24.7,19.6L24.7,19.6"/>
	<path class="st1" d="M10.3,3.3C8.5,3.7,5.4,5.5,4.8,8.7c2-2.3,4-3.6,5.6-3.8c-1.6,1.2-3.1,4-2.7,6c0.9-2.1,2.3-4.1,3.7-4.9
		c-0.8,1.3-1,4.4-0.3,5.7c0.2-1.8,0.7-4.1,1.6-5.2L13,8.7h-0.3l0.3,2.3h-0.3l0.3,2.3h-0.2l0.3,2.3L12.1,16v0.1h2.8V16l-1.1-0.5
		l-0.3,0.2l0.3-0.2l0.3-2.3h-0.2l0.3-2.3h-0.3l0.3-2.3H14l0.3-2.2c0.9,1.1,1.4,3.4,1.6,5.2c0.7-1.4,0.5-4.5-0.3-5.7
		c1.4,0.7,2.9,2.8,3.7,4.9c0.5-2-1-4.8-2.7-6c1.6,0.3,3.6,1.5,5.6,3.8c-0.6-3.1-3.7-5-5.6-5.4c2-0.2,4,0.4,5.8,1.3
		c-1.9-2.2-4.9-3-6.8-2.8c0.3-0.3,0.6-0.5,1.1-0.7c-0.8-0.4-2.1-0.2-2.6,0.4c0,0-0.1-1-0.7-1.4c-0.6,0.4-0.7,1.4-0.7,1.4
		c-0.5-0.6-1.8-0.8-2.6-0.4c0.5,0.1,0.8,0.3,1.1,0.7C9.4,1.5,6.5,2.3,4.6,4.6C6.4,3.7,8.3,3.1,10.3,3.3"/>
	<path class="st1" d="M14,17.7c-0.2,0.1-0.3,0.2-0.6,0.4c-0.2-0.1-0.4-0.3-0.6-0.4c-0.8-0.5-7.7-5.2-10.7-1.9c2.8-1.1,6.9,1,10.2,3
		c-0.8,0.6-1.8,1.2-2.6,1.8c-1.3-1.3-1.8-1.1-1.9-1c-0.1,0.1-0.2,0.2-0.2,0.3c0,0.2,0.1,0.3,0.3,0.4c0.2,0,0.3-0.1,0.3-0.3l0-0.1
		c0.4,0.2,0.7,0.5,1.5,1.4c0.9,0.9,1.2,1.1,1.4,1.3c0.2,0.1,0.3,0.1,0.5,0.1c0.2,0,0.4-0.1,0.4-0.3c0-0.2-0.1-0.4-0.3-0.4
		c-0.2,0-0.3,0.1-0.3,0.3v0c-0.2-0.2-0.5-0.5-1-1c0.8-0.5,1.8-1.1,3-1.9c1.2,0.7,2.2,1.4,3,1.9c-0.5,0.5-0.7,0.8-1,1v0
		c0-0.2-0.2-0.3-0.3-0.3c-0.2,0-0.3,0.2-0.3,0.4c0,0.2,0.2,0.3,0.4,0.3c0.1,0,0.3,0,0.5-0.1c0.3-0.1,0.6-0.4,1.4-1.3
		c0.8-0.9,1.2-1.2,1.5-1.4l0,0.1c0,0.2,0.2,0.3,0.3,0.3c0.2,0,0.3-0.2,0.3-0.4c0-0.1-0.1-0.3-0.2-0.3c-0.1,0-0.6-0.2-1.9,1
		c-0.8-0.6-1.8-1.2-2.6-1.8c3.4-2,7.5-4.1,10.2-3C21.8,12.5,14.9,17.1,14,17.7"/>
	<path class="st1" d="M6.3,22c-0.1,0-0.2-0.1-0.3-0.1c0,0-0.1,0-0.1,0c0,0,0,0.1,0,0.1c0,0,0.1,0.1,0.2,0.2c0.5,0.4,1.4,0.7,3.8-0.6
		c-0.1-0.1-0.1-0.1-0.2-0.2c-0.2-0.2-0.3-0.3-0.4-0.4C7.9,21.8,6.9,22.2,6.3,22"/>
	<path class="st1" d="M20.7,22c-0.6,0.3-1.6-0.2-2.9-1c-0.1,0.1-0.3,0.3-0.4,0.4c-0.1,0.1-0.2,0.2-0.2,0.2c2.4,1.3,3.3,1,3.8,0.6
		c0.1-0.1,0.1-0.2,0.2-0.2c0,0,0-0.1,0-0.1c0,0-0.1,0-0.1,0C20.9,21.9,20.8,22,20.7,22"/>
</g>
</svg>
