<svg xmlns="http://www.w3.org/2000/svg" viewBox="0 0 566.14 244.12"><defs><style>.cls-1{fill:#0c8f7c;}.cls-2{fill:#4bb16b;}.cls-3{fill:#f69227;}.cls-4{fill:#405291;}.cls-5{fill:#ffd03c;}.cls-6{fill:#ef5242;}.cls-7{fill:#a2c566;}</style></defs><g id="Layer_2" data-name="Layer 2"><g id="Layer_1-2" data-name="Layer 1"><g id="logo_m" data-name="logo m"><rect id="Rectangle_27" data-name="Rectangle 27" class="cls-1" x="238.13" y="129.51" width="4.33" height="27.67"/><rect id="Rectangle_28" data-name="Rectangle 28" class="cls-1" x="227.73" y="129.51" width="4.33" height="27.67"/><rect id="Rectangle_29" data-name="Rectangle 29" class="cls-1" x="131.01" y="129.51" width="4.33" height="27.67"/><rect id="Rectangle_30" data-name="Rectangle 30" class="cls-1" x="120.62" y="129.51" width="4.33" height="27.67"/><rect id="Rectangle_31" data-name="Rectangle 31" class="cls-1" x="79.94" y="135.56" width="4.33" height="21.62"/><rect id="Rectangle_32" data-name="Rectangle 32" class="cls-1" x="56.4" y="129.51" width="4.33" height="27.67"/><rect id="Rectangle_33" data-name="Rectangle 33" class="cls-1" x="199.13" y="152.85" width="32.92" height="4.33"/><rect id="Rectangle_34" data-name="Rectangle 34" class="cls-1" x="29.32" y="152.85" width="54.95" height="4.33"/><rect id="Rectangle_35" data-name="Rectangle 35" class="cls-1" x="215.51" y="135.93" width="4.33" height="21.25"/><rect id="Rectangle_36" data-name="Rectangle 36" class="cls-1" x="41.78" y="135.93" width="4.33" height="21.25"/><rect id="Rectangle_37" data-name="Rectangle 37" class="cls-1" x="29.32" y="135.93" width="4.33" height="21.25"/><rect id="Rectangle_38" data-name="Rectangle 38" class="cls-1" x="194.81" y="145.57" width="4.33" height="20.07"/><rect id="Rectangle_39" data-name="Rectangle 39" class="cls-1" x="147.33" y="152.85" width="4.33" height="12.79"/><rect id="Rectangle_40" data-name="Rectangle 40" class="cls-1" x="147.33" y="152.85" width="15.97" height="4.33"/><rect id="Rectangle_41" data-name="Rectangle 41" class="cls-1" x="56.4" y="135.54" width="27.87" height="4.33"/><rect id="Rectangle_42" data-name="Rectangle 42" class="cls-1" x="18.34" y="135.54" width="15.31" height="4.33"/><rect id="Rectangle_43" data-name="Rectangle 43" class="cls-1" x="111.68" y="152.84" width="13.26" height="4.33"/><path id="Path_65" data-name="Path 65" class="cls-1" d="M163,134.52a11.34,11.34,0,1,0,8,3.31A11.32,11.32,0,0,0,163,134.52Zm0,18.33a7,7,0,1,1,7-7h0a7,7,0,0,1-7,7Z"/><path id="Path_66" data-name="Path 66" class="cls-1" d="M199.14,145.85a11.34,11.34,0,1,0-11.34,11.34h11.34Zm-4.33,7h-7a7,7,0,1,1,7-7Z"/><rect id="Rectangle_44" data-name="Rectangle 44" class="cls-1" x="108.4" y="145.57" width="4.33" height="20.07"/><path id="Path_67" data-name="Path 67" class="cls-1" d="M112.73,145.85a11.34,11.34,0,1,0-11.34,11.34h11.34Zm-4.33,7h-7a7,7,0,1,1,7-7h0Z"/><circle id="Ellipse_1" data-name="Ellipse 1" class="cls-1" cx="43.95" cy="130.35" r="2.67"/><circle id="Ellipse_2" data-name="Ellipse 2" class="cls-1" cx="15.19" cy="170.77" r="2.67"/><circle id="Ellipse_3" data-name="Ellipse 3" class="cls-1" cx="8.15" cy="170.77" r="2.67"/><circle id="Ellipse_4" data-name="Ellipse 4" class="cls-1" cx="212.79" cy="162.55" r="2.67"/><circle id="Ellipse_5" data-name="Ellipse 5" class="cls-1" cx="205.76" cy="162.55" r="2.67"/><path id="Path_68" data-name="Path 68" class="cls-1" d="M18.34,154.4a7,7,0,0,1-14,0V144H0V154.4a11.34,11.34,0,0,0,22.66,0V136.48H18.34Z"/><circle id="Ellipse_6" data-name="Ellipse 6" class="cls-1" cx="54.03" cy="220.97" r="2.67"/><circle id="Ellipse_7" data-name="Ellipse 7" class="cls-1" cx="47" cy="220.97" r="2.67"/><rect id="Rectangle_45" data-name="Rectangle 45" class="cls-1" x="238.13" y="179.71" width="4.33" height="27.67"/><rect id="Rectangle_46" data-name="Rectangle 46" class="cls-1" x="227.73" y="179.71" width="4.33" height="27.67"/><rect id="Rectangle_47" data-name="Rectangle 47" class="cls-1" x="212.8" y="186.14" width="4.33" height="21.25"/><rect id="Rectangle_48" data-name="Rectangle 48" class="cls-1" x="198.61" y="186.14" width="4.33" height="21.25"/><rect id="Rectangle_49" data-name="Rectangle 49" class="cls-1" x="184.42" y="186.14" width="4.33" height="21.25"/><rect id="Rectangle_50" data-name="Rectangle 50" class="cls-1" x="118.95" y="203.06" width="113.1" height="4.33"/><rect id="Rectangle_51" data-name="Rectangle 51" class="cls-1" x="77.37" y="186.7" width="16.39" height="4.33"/><rect id="Rectangle_52" data-name="Rectangle 52" class="cls-1" x="58.72" y="186.7" width="13.92" height="4.33"/><rect id="Rectangle_53" data-name="Rectangle 53" class="cls-1" x="77.37" y="203.06" width="16.39" height="4.33"/><rect id="Rectangle_54" data-name="Rectangle 54" class="cls-1" x="89.44" y="186.72" width="4.33" height="20.69"/><rect id="Rectangle_55" data-name="Rectangle 55" class="cls-1" x="68.31" y="186.72" width="4.33" height="20.69"/><path id="Path_69" data-name="Path 69" class="cls-1" d="M164.21,185.71a11.35,11.35,0,0,0-11.32,11.34v6.69h4.32V197.1a7,7,0,0,1,7-7h5.08v-4.32Z"/><path id="Path_70" data-name="Path 70" class="cls-1" d="M57.52,204.61a7,7,0,1,1-14,.6q0-.3,0-.6V194.25H39.18v10.36a11.34,11.34,0,1,0,22.66.77c0-.26,0-.51,0-.77V186.7H57.52Z"/><rect id="Rectangle_56" data-name="Rectangle 56" class="cls-1" x="115.84" y="195.88" width="4.33" height="20.07"/><path id="Path_71" data-name="Path 71" class="cls-1" d="M120.17,196.16a11.34,11.34,0,1,0-11.35,11.33h11.35Zm-4.33,7h-7a7,7,0,1,1,7-7h0Z"/><rect id="Rectangle_57" data-name="Rectangle 57" class="cls-2" x="23.62" y="179.71" width="4.33" height="27.67"/><rect id="Rectangle_58" data-name="Rectangle 58" class="cls-2" x="12.87" y="189" width="4.33" height="18.4"/><path id="Path_72" data-name="Path 72" class="cls-2" d="M17.2,188.31a8.6,8.6,0,1,0-8.6,8.6h8.6Zm-4.33,4.27H8.6a4.28,4.28,0,1,1,4.27-4.27Z"/><path id="Path_73" data-name="Path 73" class="cls-1" d="M386.25,45.16h0c2.14,1.25,4.2,2.5,6.09,3.6.65.35,1.9,1.11,1.9,1.11,2.5,1.44,4.57,2.73,6.17,3.88,5.75,4.13,8.85,9.06,7.07,19.27a10,10,0,0,1-.14,1.08c-.75,4.58-2,7.22-7.73,11.37a282.68,282.68,0,0,1-40.84,23.38,15.63,15.63,0,0,1-16-2.49c-4.72-4.92-5.24-11.55-5.26-16,.1-4,.25-7.14.42-9.41q-4.59,4.14-20.29,13.45l-2.18,1.25c.78,6,1.47,11.49,2.08,16.25,2.65,20.93,5.32,34,8.75,39a33.78,33.78,0,0,0,18.16,13.2c9,2.91,31.32,1.43,40.35-.67A88.87,88.87,0,0,0,410.54,154a14.25,14.25,0,0,1,4.07-2.08c.77,0,1.08.7.91,2.09-.55,4.34,0,7.5,1.71,9.53a10.93,10.93,0,0,0,8.75,3.61,17.77,17.77,0,0,0,9.75-2.75q5-3.24,4.67-7.88-1-14.73-6.95-49.56c-1.68-9.17-7.37-47.78-10.87-71.75a169.53,169.53,0,0,0-17.83,2.06,44.37,44.37,0,0,1-19.69-.5,50.75,50.75,0,0,1-15.27-7.09c2.4,3,5,6.15,5.68,6.9a71.21,71.21,0,0,0,10.76,8.58Zm10.32,102.63-12.06-7.07,5.8-10.44,12.06,7.08Zm21.25-46.07c.46,2.5-.54,3.59-2.76,4.34q-34.46,11.66-68.84,23.48a64.9,64.9,0,0,0-6.13,2.77c1.07,2.81,5.41,3.2,3.75,6.84h-2c-.76-.87-1.59-1.7-2.29-2.6a5.22,5.22,0,0,1,1.49-8.2,23.09,23.09,0,0,1,4.13-1.91q35.48-12.18,71-24.28a17.35,17.35,0,0,1,1.72-.44Z"/><path id="Path_74" data-name="Path 74" class="cls-3" d="M306.59,90.65c-4.08-32.19-9.34-73.51-11.25-88.56-9,3.34-17.41,8.36-26.45,12.75l15.2,14.05c-3.86,7-6.8,13.47-14.74,15.16a5.48,5.48,0,0,0-3.2,3.09c-3.75,9.64-10.71,12.8-20.51,11a19.59,19.59,0,0,0-3.67.12l-.64,16.32c4,1.88,7.76,2.6,9.87,4.87,4.37,4.69,8.59,9.51,12.75,14.4.94,1.09,5.19,5.86,9.76,11.25,8.43-3.26,15.52-6.25,21.18-8.75C298.85,94.51,302.74,92.61,306.59,90.65Zm-17-26.73c-.23.54-.53,1-.79,1.53a1.47,1.47,0,0,1-.66-.09c-4.14-3-5.25-2.5-6.25,2.64-.9,4.86-2.57,17.7-3.25,19.16-2.26-6.25-5.13-12.5-7.16-18a5.69,5.69,0,0,1-7.24-1.77c-1.4-2.41.32-4.13,1.45-5.91s3.91.21,4.67.79A18.67,18.67,0,0,1,274,66.87a73.27,73.27,0,0,1,4.62,10.6c.73-4.24,1.32-8.17,2.08-12.07a25.86,25.86,0,0,1,1.68-5.08c.73-1.71,1.86-3.19,4.11-2.21s3.88,3.86,3.11,5.81Z"/><path id="Path_75" data-name="Path 75" class="cls-4" d="M362.61,80.6a48,48,0,0,1-1.11,10c-.52,2.61-1.25,5.23-1.85,7.33l.37-.15a246.05,246.05,0,0,0,40-22.61c2.9-2,4.49-3.23,4.55-3.83a1.22,1.22,0,0,0,0-.27c-.71-2.72-3.09-5.1-6.25-7.36A144.32,144.32,0,0,0,386,56.06s-2.05-1.16-3-1.8c-1.55-.94-4.37-3.12-4.37-3.12-4.48-3.28-13.13-12.3-15.24-17.09,0-.25.67-4.86,1.15-7.95-3.45-2.5-6.85-4.92-10.35-7.15q2.28,13.55,5.07,30.66Q362.63,72.76,362.61,80.6Z"/><path id="Path_76" data-name="Path 76" class="cls-5" d="M307.76,100a117.72,117.72,0,0,1-18.35,8.47c-.12,0-3.91.69-11.31,1.9a66.88,66.88,0,0,1,8.34,11.91c2.82,7.08,7,10.58,13.61,13.64a34,34,0,0,1,16.1,15.47,115.27,115.27,0,0,1-4.49-20.54C311.15,126.48,309.64,114.79,307.76,100Z"/><path id="Path_77" data-name="Path 77" class="cls-6" d="M327.41,79Q342,69.88,342,67.5q0-.5-6.44-13.36a127.46,127.46,0,0,1-6-13.86A39.1,39.1,0,0,1,330.4,35c.59-3.12,1.08-4.69,1.46-4.69a104.85,104.85,0,0,1,5.54,10.94c-.3-1,1.69,4.16,4.48,9.37A25.53,25.53,0,0,1,345.63,62a27,27,0,0,1-6.52,17.72c.09,1.77.15,4.22.15,7.38,0,5,.87,9.22,3.45,11.31a11.42,11.42,0,0,0,9.09,1.8l1.25-.2a33,33,0,0,0,4.67-1.3c-.34-4.51-.92-11.46-.92-11.93q-2-20.56-10.31-69c-.21-1.25-.42-2.5-.66-3.85a125.5,125.5,0,0,0-18.95-9.11C319.9,2.28,311-.62,303,.12c1.56,11.94,7,53.74,11.25,86.46C318.71,84.13,323.1,81.61,327.41,79Z"/><path id="Path_78" data-name="Path 78" class="cls-7" d="M517.29,137.28c3.4-.4,4.05-2,2-4.72-3.9-5.25-9.77-8-14.62-11.7l-4.37,13.63C505.71,136,511.29,138,517.29,137.28Z"/><path id="Path_79" data-name="Path 79" class="cls-2" d="M389.22,199.84c18.41.18,36.37-3.23,54.11-7.82,12.6-3.27,24.9-7.42,36.08-14.21a36.46,36.46,0,0,0,9.44-8.28c-3.75-2.35-28-8.39-30.11-9.12-1.41-.47-2.05-1.17-1.58-3,.89-3.36,1.18-4.89,1.71-7.35.59-2.86,2.85-4.06,5.18-5.11,4.84-2.15,7.94-4.16,12.81-6.25,1-.42,1.94-.89,2.83-1.25-4.26-12.62.07-22.93,7.5-32.44a12.78,12.78,0,0,1-.21-7.3h0c-.11-.11-9.28-13.6-13.9-20.24a1.51,1.51,0,0,1-.23-1.25c2.91-6.62-1.85-9.2-6.09-12.5-6.48-5.08-13.42-10-18.48-16.33-3.75-4.65-6.49-7.19-12.5-5.44a6.35,6.35,0,0,1-3.9-.66,4.63,4.63,0,0,1-1.25-.9c3.34,20.65,9.45,61,11.76,74.25q4,23,4.09,33.07A37.8,37.8,0,0,1,440.74,169a20,20,0,0,1-17.66,9.81h0q-10.57,0-11.8-15.35-7.77,5.33-24.74,10c-1.67.47-3.28.88-4.84,1.25-10.47,2.64-34.19,3.92-44.47-.28-5-2.06-10.3-4.86-13.42-8.44a31.7,31.7,0,0,1-4.17-6.17,74.92,74.92,0,0,1,2,7.38c2.27,10.31,5.36,20.62,16.07,25.22a19.4,19.4,0,0,0,1.92.73l.7.24a36.34,36.34,0,0,1,8.37,3.75c2.82.44,5.66.79,8.51,1.08C367.82,199.3,378.55,199.74,389.22,199.84ZM450.81,65c7,7.24,8.82,15.87,7,25.4-.84,4.43-2.5,8.75-3.26,13.19a20.38,20.38,0,0,0,.15,7.86c.29,1.25,2.21,2.19,3.4,3.27a37.59,37.59,0,0,0,2.5-3.4,17.73,17.73,0,0,0,1-3.49,13.54,13.54,0,0,1-1.25,11.47c-2,3.23-6,2.31-7.66-1.39-2-4.3-1.19-8.68-.26-13,1-4.77,2.23-9.5,3.26-14.27,1.39-6.41-.73-11.92-4.68-16.86C447.92,69.9,447.88,70,450.81,65Z"/><path id="Path_80" data-name="Path 80" class="cls-7" d="M556.49,123.59c-6.1.4-12.33-.2-18.32.83a32.59,32.59,0,0,1-15.93-1,20.15,20.15,0,0,1-3.75,21.87c-3.4,3.61-7.63,3.5-11.73,2.63-5.07-1.09-10-3-15-4.44a4.15,4.15,0,0,0-2.58-.23c-6.38,2.82-12.69,5.77-19.55,8.93,3.26.8,6.08,1.38,8.85,2.19,3.23.91,6.49,1.83,9.61,3.05a8.58,8.58,0,0,1,5.54,9.89c-1.25,10-7.69,16.16-15.79,21A145.51,145.51,0,0,1,438.1,204l10.9,7.3,5.28-8.25L465,210.19c.43-.78.68-1.33.56-1.43,6.7-7.6,16.12-12,26.92-14.38,23.11-5.16,43.64-16.1,64.15-27.2,2.74-1.47,6-4.39,6.53-7.11a174.17,174.17,0,0,0,3-26.94C566.29,127.49,563.47,123.12,556.49,123.59Z"/><path id="Path_81" data-name="Path 81" class="cls-7" d="M492.06,131.34a2.44,2.44,0,0,0,.69-.28c7.5-3.29,8.86-9.83,3.07-15.68a7.66,7.66,0,0,0-4-2.31c-3.75-.46-10,5.79-10,9.77a7,7,0,0,0,.1.8C482.46,126.57,489.14,131.63,492.06,131.34Z"/><path id="Path_82" data-name="Path 82" class="cls-7" d="M443,221.24l-11.41-7.63,6.07-9.57c-1.91.47-3.83.91-5.76,1.36a223.85,223.85,0,0,1-73.23,3.71c6.86,14.79,14.89,20.25,23.93,35,1.34-2,9.93,0,10-.8l15.75-13.93c12.36-1,24.71-2.09,37.09-3a6.15,6.15,0,0,1,3.75,1.11c4.26,3.13,6.83,1.44,8.06-2.93.45-1.56,1-3,1.54-4.44l-10.5-7Z"/></g></g></g></svg>