<?xml version="1.0" encoding="utf-8"?>
<!-- Generator: Adobe Illustrator 25.3.1, SVG Export Plug-In . SVG Version: 6.00 Build 0)  -->
<svg version="1.1" id="Layer_1" xmlns="http://www.w3.org/2000/svg" xmlns:xlink="http://www.w3.org/1999/xlink" x="0px" y="0px"
	 viewBox="0 0 92.273 27.319" style="enable-background:new 0 0 92.273 27.319;" xml:space="preserve">
<style type="text/css">
	.st0{fill:#00377B;}
	.st1{fill:#221F72;}
	.st2{fill-rule:evenodd;clip-rule:evenodd;fill:#221F72;}
	.st3{fill:#A39161;}
</style>
<line class="st0" x1="109.73" y1="16.749" x2="109.73" y2="17.511"/>
<rect x="90.528" y="2.05" class="st1" width="1.701" height="8.647"/>
<rect x="77.662" y="17.183" class="st1" width="1.841" height="9.823"/>
<path class="st2" d="M92.273,27.006H90.19c-0.735-1.489-2.652-3.649-5.836-3.44l-1.676,3.44h-1.298l5.128-9.982h0.656L92.273,27.006
	 M84.754,22.735c0.939,0,2.686,0.129,3.931,1.122l-2.236-4.585L84.754,22.735z"/>
<g>
	<path class="st3" d="M24.71,19.866l-0.034,0.057c-2.227,3.871-6.398,6.477-11.186,6.477c-7.122,0-12.893-5.772-12.893-12.891
		c0-2.334,0.622-4.523,1.709-6.413l0.028-0.049L2.321,7.001L2.273,7.015L2.24,7.063C2.048,7.339,1.867,7.632,1.696,7.929
		c-3.54,6.178-1.36,14.081,4.875,17.652c6.231,3.572,14.156,1.461,17.695-4.713c0.172-0.299,0.33-0.602,0.475-0.909l0.028-0.062
		l-0.014-0.048L24.71,19.866"/>
	<path class="st3" d="M10.335,3.547C8.501,3.937,5.421,5.823,4.767,8.952C6.742,6.618,8.8,5.391,10.374,5.106
		c-1.611,1.205-3.126,4.019-2.655,5.993c0.853-2.097,2.347-4.148,3.717-4.894c-0.777,1.279-1.031,4.37-0.287,5.734
		c0.172-1.771,0.733-4.07,1.614-5.206l0.262,2.219h-0.303l0.318,2.259h-0.252l0.264,2.259h-0.216l0.33,2.258L12.1,16.273v0.077
		h2.783v-0.077l-1.069-0.545l-0.323,0.248l0.322-0.248l0.327-2.258h-0.215l0.264-2.259h-0.251l0.318-2.259h-0.303l0.263-2.219
		c0.88,1.135,1.439,3.435,1.614,5.206c0.745-1.364,0.488-4.455-0.287-5.734c1.372,0.746,2.862,2.797,3.718,4.894
		c0.469-1.974-1.045-4.788-2.657-5.993c1.576,0.285,3.631,1.512,5.605,3.846c-0.65-3.129-3.73-5.015-5.566-5.405
		c2.021-0.202,3.99,0.446,5.775,1.312c-1.94-2.238-4.863-3.048-6.798-2.828c0.327-0.344,0.644-0.528,1.138-0.674
		c-0.818-0.38-2.089-0.182-2.584,0.373c0,0-0.09-1.037-0.682-1.444c-0.597,0.407-0.685,1.444-0.685,1.444
		c-0.497-0.555-1.766-0.754-2.582-0.373c0.492,0.146,0.807,0.33,1.136,0.674C9.426,1.811,6.5,2.621,4.562,4.859
		C6.35,3.993,8.316,3.345,10.335,3.547"/>
	<path class="st3" d="M14.041,17.96c-0.151,0.101-0.341,0.23-0.552,0.374c-0.209-0.143-0.397-0.272-0.552-0.374
		c-0.819-0.55-7.749-5.185-10.743-1.905c2.763-1.097,6.859,0.974,10.233,3.006c-0.843,0.577-1.807,1.241-2.622,1.794
		c-1.296-1.256-1.777-1.054-1.893-1.006c-0.128,0.054-0.216,0.17-0.223,0.316c-0.003,0.189,0.144,0.347,0.329,0.352
		c0.186,0.004,0.342-0.147,0.347-0.335l-0.008-0.078c0.359,0.228,0.693,0.53,1.529,1.393c0.852,0.883,1.182,1.127,1.433,1.273
		c0.174,0.103,0.348,0.126,0.456,0.119c0.176-0.01,0.351-0.138,0.36-0.336c0.01-0.196-0.137-0.36-0.326-0.362
		c-0.188-0.005-0.348,0.148-0.348,0.344v0.033c-0.23-0.166-0.479-0.471-0.971-1.004c0.811-0.464,1.845-1.133,2.999-1.852
		c1.155,0.719,2.187,1.388,2.999,1.852c-0.491,0.532-0.74,0.837-0.974,1.004l0-0.033c0.002-0.196-0.158-0.349-0.346-0.344
		c-0.191,0.002-0.336,0.166-0.326,0.362c0.009,0.198,0.183,0.326,0.361,0.336c0.106,0.007,0.279-0.016,0.456-0.119
		c0.251-0.146,0.581-0.39,1.434-1.273c0.836-0.863,1.171-1.166,1.528-1.393l-0.007,0.078c0.006,0.188,0.162,0.339,0.345,0.335
		c0.185-0.005,0.332-0.163,0.331-0.352c-0.007-0.146-0.095-0.263-0.221-0.316c-0.117-0.048-0.6-0.25-1.895,1.003
		c-0.814-0.551-1.778-1.214-2.622-1.791c3.375-2.03,7.47-4.103,10.234-3.006C21.79,12.775,14.861,17.41,14.041,17.96"/>
	<path class="st3" d="M6.309,22.281c-0.108-0.045-0.218-0.106-0.274-0.117c-0.039-0.003-0.072,0.006-0.097,0.031
		c-0.023,0.029-0.03,0.086-0.007,0.134c0.014,0.034,0.055,0.096,0.162,0.191c0.453,0.395,1.365,0.746,3.767-0.599
		c-0.072-0.072-0.147-0.149-0.229-0.231c-0.16-0.166-0.3-0.31-0.425-0.438C7.936,22.055,6.93,22.535,6.309,22.281"/>
	<path class="st3" d="M20.672,22.281c-0.624,0.254-1.629-0.226-2.899-1.029c-0.125,0.127-0.265,0.271-0.427,0.438
		c-0.078,0.083-0.156,0.159-0.224,0.231c2.397,1.345,3.31,0.993,3.763,0.599c0.111-0.095,0.15-0.157,0.165-0.191
		c0.025-0.048,0.017-0.104-0.006-0.134c-0.023-0.024-0.058-0.034-0.096-0.031C20.89,22.174,20.779,22.236,20.672,22.281"/>
	<polyline class="st1" points="39.746,14.124 40.741,15.168 41.741,14.124 40.741,13.089 39.746,14.124 	"/>
	<polyline class="st1" points="35.532,1.042 34.535,0 33.533,1.042 34.535,2.079 35.532,1.042 	"/>
	<polyline class="st1" points="37.127,14.124 38.136,15.168 39.136,14.124 38.136,13.089 37.127,14.124 	"/>
	<polyline class="st1" points="38.155,1.042 37.145,0 36.146,1.042 37.145,2.079 38.155,1.042 	"/>
	<path class="st1" d="M86.421,2.05v7.33c0,0.42-0.039,0.773-0.188,1.02c-0.181,0.302-0.499,0.554-1.107,0.554
		c-0.609,0-0.931-0.252-1.114-0.554c-0.149-0.247-0.193-0.6-0.193-1.02V4.09h-1.723v5.271h-2.157V4.099H78.23v5.261h-2.155V4.09
		h-1.712v5.271h-6.612c-1.907-0.133-2.352-1.151-2.352-2.098c0-1.331,1.179-1.844,2.468-1.844h2.807V4.09h-2.493
		c-2.026,0-3.722,0.833-3.722,2.943c0,1.371,0.615,1.993,1.151,2.328h-4.338V2.828c-3.752,0.467-6.73,3.268-6.73,7.869h5.025v1.619
		c0,0.622,0.071,1.818-0.837,1.987v0.716c0.633-0.068,1.657-0.492,2.111-1.261c0.355-0.598,0.431-1.141,0.431-2.394v-0.667h21.043
		c0.065,0.164,0.154,0.334,0.272,0.506c0.525,0.726,1.454,1.051,2.54,1.051c1.073,0,1.994-0.324,2.518-1.051
		c0.436-0.616,0.485-1.226,0.485-1.966V2.05H86.421 M59.568,9.361h-3.518v-0.25c0-3.003,2.333-4.831,3.518-5.153V9.361z"/>
	<path class="st1" d="M49.087,4.06H46.63v1.341h2.06c1.591,0,3.222,0.077,3.222,1.923c0,1.64-1.203,2.01-3.353,2.01h-4.129v1.338
		h4.437c2.676,0,3.987-0.82,3.987-3.34C52.853,4.795,51.298,4.06,49.087,4.06"/>
	<path class="st1" d="M40.741,9.361c0,0.426-0.047,0.772-0.196,1.03c-0.18,0.301-0.492,0.547-1.105,0.547
		c-0.6,0-0.923-0.246-1.105-0.547c-0.152-0.258-0.199-0.605-0.199-1.03V2.822c-4.079,0.384-6.719,3.609-6.719,7.875h5.211
		c0.075,0.164,0.162,0.324,0.275,0.485c0.52,0.726,1.449,1.052,2.527,1.052c1.089,0,2-0.326,2.519-1.052
		c0.445-0.608,0.5-1.217,0.5-1.964V3.512h-1.707V9.361 M36.42,9.361h-3.495V9.135c0-2.984,2.304-4.865,3.495-5.187V9.361z"/>
	<path class="st2" d="M57.116,27.213c-1.688,0-2.955-0.353-3.736-1.1c-0.69-0.641-1.008-1.373-1.008-2.83v-6.099H54.2v6.356
		c0,0.935,0.144,1.471,0.592,1.95c0.483,0.519,1.313,0.802,2.323,0.802c1.003,0,1.829-0.282,2.312-0.802
		c0.448-0.479,0.587-1.015,0.587-1.95v-6.356h1.841v6.099c0,1.457-0.325,2.19-1.011,2.83C60.063,26.86,58.786,27.213,57.116,27.213"
		/>
	<path class="st2" d="M68.71,16.981c-0.902,0.023-3.12,0.12-4.739,0.588l0.152,0.728c0.437-0.122,0.847-0.212,1.322-0.287v8.997
		c2.59,0.05,3.701,0.041,5.061-0.116c2.378-0.288,4.628-2.076,4.628-4.825C75.133,18.193,71.673,16.924,68.71,16.981 M69.065,26.153
		c-0.365,0-1.163-0.04-1.503-0.316c-0.279-0.24-0.287-0.632-0.287-1.221v-6.81c2.817-0.25,5.934,0.581,5.934,4.288
		C73.21,25.06,71.28,26.153,69.065,26.153"/>
	<path class="st2" d="M51.173,27.006h-2.086c-0.735-1.49-2.65-3.65-5.835-3.441l-1.676,3.441h-1.298l5.129-9.982h0.654
		L51.173,27.006 M43.653,22.735c0.937,0,2.685,0.127,3.931,1.119l-2.238-4.583L43.653,22.735z"/>
	<path class="st2" d="M38.831,17.519c-0.526-0.278-1.842-0.685-3.201-0.662c-2.399,0.06-3.997,1.04-4.015,2.809
		c-0.01,0.349,0.066,0.794,0.279,1.173c1.161,1.99,5.97,1.663,5.97,3.793c0,0.61-0.582,1.612-2.234,1.612
		c-1.796,0-3.163-0.829-3.82-1.344l-0.471,1.438c0.556,0.289,2.056,0.835,4.21,0.835c0.965,0,2.064-0.262,2.866-0.886
		c0.777-0.611,1.128-1.362,1.128-2.293c0-3.525-6.149-2.639-6.149-4.854c0-0.365,0.203-0.629,0.274-0.719
		c0.333-0.43,1.063-0.692,1.985-0.692c0.86,0,1.765,0.289,2.663,1.004L38.831,17.519"/>
</g>
</svg>
